<svg xmlns="http://www.w3.org/2000/svg" width="28.985" height="28.985" viewBox="0 0 28.985 28.985"><path d="M1270.5,56.819c3.078,0,6.341,2.592,6.341,4.527v4.53c0,1.743-.725,5.078-2.669,6.609a1.812,1.812,0,0,0,.365,3.071l7.887,3.74a1.012,1.012,0,0,1,.756,1.114v1.769h-25.361V80.341a1.093,1.093,0,0,1,.757-1.046l7.959-3.756a1.813,1.813,0,0,0,.377-3.06c-1.883-1.512-2.76-4.834-2.76-6.6v-4.53c0-1.894,3.3-4.527,6.347-4.527m0-1.812c-4,0-8.16,3.34-8.16,6.34v4.53c0,1.978.9,5.982,3.438,8.017l-7.959,3.756S1256,78.456,1256,79.46v2.72a1.811,1.811,0,0,0,1.811,1.812h25.362a1.811,1.811,0,0,0,1.812-1.812V79.46c0-1.065-1.812-1.811-1.812-1.811l-7.887-3.74c2.511-1.976,3.36-5.858,3.36-8.033v-4.53c0-3-4.152-6.34-8.154-6.34Z" transform="translate(-1256.003 -55.007)"/></svg>