<svg xmlns="http://www.w3.org/2000/svg" width="29.988" height="28.993" viewBox="0 0 29.988 28.993"><path d="M1211.71,81.66a2.35,2.35,0,1,1,2.35,2.34A2.345,2.345,0,0,1,1211.71,81.66Zm-8.48,0a2.35,2.35,0,1,1,2.35,2.34A2.345,2.345,0,0,1,1203.23,81.66Zm.629-4.216a.933.933,0,0,1-.9-.678l-5.2-18.991c-.266-.911-.655-.911-.783-.911h-4.034a.928.928,0,1,1,0-1.857h4.034a2.681,2.681,0,0,1,2.581,2.259l1.514,5.18h19.988a.936.936,0,0,1,.765.4.924.924,0,0,1,.115.848l-4.481,13.139a.935.935,0,0,1-.88.615Zm.709-1.858h11.346l3.81-11.282h-18.133Z" transform="translate(-1192.001 -55.007)"/></svg>