<svg xmlns="http://www.w3.org/2000/svg" width="8.016" height="9.993" viewBox="0 0 8.016 9.993"><defs><style>.a{fill:#acacac;}</style></defs><g transform="translate(-401.53 -2273)"><path class="a" d="M402.126,2278a.574.574,0,0,0-.422.19.686.686,0,0,0,0,.915l3.411,3.7a.564.564,0,0,0,.844,0l3.411-3.7a.686.686,0,0,0,0-.915.564.564,0,0,0-.844,0l-2.99,3.242-2.99-3.242A.574.574,0,0,0,402.126,2278Z"/><path class="a" d="M402.126,2273a.572.572,0,0,0-.422.189.686.686,0,0,0,0,.915l3.411,3.7a.564.564,0,0,0,.844,0l3.411-3.7a.686.686,0,0,0,0-.915.564.564,0,0,0-.844,0l-2.99,3.242-2.99-3.242A.572.572,0,0,0,402.126,2273Z"/></g></svg>